<svg xmlns="http://www.w3.org/2000/svg" width="28.055" height="27.402" viewBox="0 0 28.055 27.402">
  <g id="iAquaLink-nav-device" transform="translate(0.055 0.001)">
    <path id="Path_48" data-name="Path 48" d="M632.549,726.505A8.265,8.265,0,1,1,617.8,719.1l6.844-11.822a.37.37,0,0,1,.64,0l2.662,4.6h1.676l-3.083-5.326a1.82,1.82,0,0,0-3.151,0l-6.844,11.822h0A9.72,9.72,0,1,0,634.1,726.5Z" transform="translate(-615.247 -705.642)" fill="#fff"/>
    <rect id="Rectangle_47" data-name="Rectangle 47" width="18.281" height="1.951" rx="0.975" transform="translate(9.719 8.184)" fill="#fff"/>
    <rect id="Rectangle_48" data-name="Rectangle 48" width="13.184" height="1.951" rx="0.975" transform="translate(12.268 12.573)" fill="#fff"/>
    <rect id="Rectangle_49" data-name="Rectangle 49" width="8.453" height="1.951" rx="0.975" transform="translate(14.633 16.962)" fill="#fff"/>
  </g>
</svg>
