<svg xmlns="http://www.w3.org/2000/svg" width="21.778" height="24" viewBox="0 0 21.778 24">
  <path id="iAquaLink-nav-home" d="M573.591,730.616h-4.068a2.158,2.158,0,0,1-2.156-2.156v-7.43a.442.442,0,0,0-.442-.441H562.79a.442.442,0,0,0-.442.442v7.43a2.159,2.159,0,0,1-2.156,2.156h-4.068a2.158,2.158,0,0,1-2.156-2.156V717.925a2.576,2.576,0,0,1,.751-1.825l8.915-8.975a1.712,1.712,0,0,1,1.222-.509h0a1.714,1.714,0,0,1,1.222.508l8.915,8.976a2.574,2.574,0,0,1,.752,1.825V728.46A2.158,2.158,0,0,1,573.591,730.616Zm-10.8-11.741h4.135a2.159,2.159,0,0,1,2.156,2.156v7.43a.442.442,0,0,0,.442.442h4.068a.442.442,0,0,0,.442-.442V717.925a.87.87,0,0,0-.254-.617l-8.914-8.975-8.927,8.975a.871.871,0,0,0-.254.617v10.536a.442.442,0,0,0,.442.442h4.068a.442.442,0,0,0,.442-.442v-7.43A2.158,2.158,0,0,1,562.79,718.875Z" transform="translate(-553.969 -706.616)" fill="#fff"/>
</svg>
