<svg id="intelligent-control" xmlns="http://www.w3.org/2000/svg" width="51.576" height="46" viewBox="0 0 51.576 46">
  <g id="noun-refresh-6922706" transform="translate(0 0)">
    <g id="Group_105" data-name="Group 105" transform="translate(0 0)">
      <path id="Path_165" data-name="Path 165" d="M50.043,56.11a1.454,1.454,0,0,0-2.027.366,20.087,20.087,0,0,1-36.59-10.7h2.186a.583.583,0,0,0,.507-.869l-3.66-6.478a.583.583,0,0,0-1.014,0L5.786,44.9a.583.583,0,0,0,.507.869H8.515A23,23,0,0,0,50.408,58.136a1.457,1.457,0,0,0-.366-2.027Z" transform="translate(-5.71 -22.042)" fill="#fff"/>
      <path id="Path_166" data-name="Path 166" d="M61.451,32.77H59.229A23,23,0,0,0,17.336,20.406a1.456,1.456,0,0,0,2.393,1.66,20.086,20.086,0,0,1,36.588,10.7H54.131a.583.583,0,0,0-.507.869l3.66,6.478a.583.583,0,0,0,1.014,0l3.66-6.478a.583.583,0,0,0-.507-.869Z" transform="translate(-10.458 -10.5)" fill="#fff"/>
    </g>
  </g>
  <text id="A" transform="translate(25.762 29.948)" fill="#fff" font-size="25" font-family="Helvetica"><tspan x="-8.337" y="0">A</tspan></text>
</svg>
