<svg xmlns="http://www.w3.org/2000/svg" width="23.999" height="26.399" viewBox="0 0 23.999 26.399">
  <g id="iAquaLink-nav-setting" transform="translate(0 0)">
    <path id="Path_49" data-name="Path 49" d="M685.317,708.624a.972.972,0,0,1,.959.812l.25,1.507a2.91,2.91,0,0,0,1.419,2.046l1.694.979a2.914,2.914,0,0,0,2.483.205l1.43-.536a.969.969,0,0,1,1.184.424l.46.8a.967.967,0,0,1-.224,1.237l-1.178.97a2.912,2.912,0,0,0-1.063,2.253v1.956a2.907,2.907,0,0,0,1.063,2.254l1.178.97a.967.967,0,0,1,.224,1.238l-.46.8a.968.968,0,0,1-1.184.425l-1.429-.536a2.928,2.928,0,0,0-2.484.205l-1.694.979a2.913,2.913,0,0,0-1.419,2.047l-.25,1.505a.972.972,0,0,1-.959.811H684.4a.971.971,0,0,1-.959-.812l-.25-1.507a2.91,2.91,0,0,0-1.419-2.046l-1.694-.979a2.913,2.913,0,0,0-2.483-.205l-1.43.536a.966.966,0,0,1-1.184-.424l-.46-.8a.968.968,0,0,1,.224-1.237l1.177-.97a2.908,2.908,0,0,0,1.064-2.254v-1.956a2.9,2.9,0,0,0-1.063-2.253h0l-1.178-.97a.967.967,0,0,1-.224-1.238l.46-.8a.97.97,0,0,1,1.184-.424l1.429.536a2.918,2.918,0,0,0,2.484-.205l1.694-.979a2.913,2.913,0,0,0,1.419-2.048l.25-1.505a.972.972,0,0,1,.959-.812h.919m0-1.526H684.4a2.492,2.492,0,0,0-2.464,2.085l-.251,1.508a1.389,1.389,0,0,1-.678.977l-1.693.978a1.391,1.391,0,0,1-1.186.1l-1.427-.536a2.5,2.5,0,0,0-3.039,1.085l-.462.8a2.486,2.486,0,0,0,.576,3.181l1.177.97a1.381,1.381,0,0,1,.506,1.073v1.958a1.386,1.386,0,0,1-.507,1.075l-1.179.972a2.488,2.488,0,0,0-.574,3.18l.458.794a2.493,2.493,0,0,0,3.047,1.089l1.426-.535a1.387,1.387,0,0,1,1.183.1l1.694.979a1.388,1.388,0,0,1,.677.975l.25,1.507A2.494,2.494,0,0,0,684.4,733.5h.919a2.492,2.492,0,0,0,2.464-2.083l.251-1.509a1.389,1.389,0,0,1,.678-.977l1.693-.978a1.4,1.4,0,0,1,.7-.185,1.42,1.42,0,0,1,.495.09l1.423.534a2.494,2.494,0,0,0,3.041-1.089l.46-.8a2.486,2.486,0,0,0-.576-3.18l-1.178-.97a1.386,1.386,0,0,1-.507-1.076v-1.956a1.391,1.391,0,0,1,.508-1.076l1.177-.969a2.488,2.488,0,0,0,.574-3.18l-.458-.794a2.5,2.5,0,0,0-3.043-1.09l-1.429.536a1.4,1.4,0,0,1-.49.089,1.385,1.385,0,0,1-.692-.186l-1.694-.979a1.387,1.387,0,0,1-.677-.975l-.25-1.506a2.493,2.493,0,0,0-2.465-2.088Z" transform="translate(-672.857 -707.098)" fill="#fff"/>
    <path id="Path_50" data-name="Path 50" d="M684.858,725.777a5.5,5.5,0,1,1,5.5-5.5,5.5,5.5,0,0,1-5.5,5.5Zm0-9.47a3.972,3.972,0,1,0,3.972,3.972,3.972,3.972,0,0,0-3.972-3.972Z" transform="translate(-672.857 -707.098)" fill="#fff"/>
  </g>
</svg>
