<svg id="relay_setting" data-name="relay setting" xmlns="http://www.w3.org/2000/svg" width="28" height="28" viewBox="0 0 28 28">
  <g id="Ellipse_11" data-name="Ellipse 11" fill="none" stroke="#fff" stroke-width="1">
    <circle cx="14" cy="14" r="14" stroke="none"/>
    <circle cx="14" cy="14" r="13.5" fill="none"/>
  </g>
  <g id="iAquaLink-nav-setting" transform="translate(7 6.497)">
    <path id="Path_49" data-name="Path 49" d="M679.94,707.965a.552.552,0,0,1,.545.462l.142.856a1.654,1.654,0,0,0,.807,1.163l.963.556a1.657,1.657,0,0,0,1.411.117l.813-.3a.551.551,0,0,1,.673.241l.261.453a.55.55,0,0,1-.127.7l-.67.551a1.655,1.655,0,0,0-.6,1.281v1.112a1.653,1.653,0,0,0,.6,1.281l.67.551a.549.549,0,0,1,.127.7l-.261.452a.55.55,0,0,1-.673.242l-.812-.3a1.665,1.665,0,0,0-1.412.117l-.963.557a1.655,1.655,0,0,0-.807,1.164l-.142.856a.552.552,0,0,1-.545.461h-.523a.552.552,0,0,1-.545-.462l-.142-.856a1.654,1.654,0,0,0-.807-1.163l-.963-.556a1.656,1.656,0,0,0-1.411-.117l-.813.3a.549.549,0,0,1-.673-.241l-.262-.453a.55.55,0,0,1,.127-.7l.669-.551a1.653,1.653,0,0,0,.6-1.281v-1.112a1.65,1.65,0,0,0-.6-1.281h0l-.67-.551a.55.55,0,0,1-.127-.7l.262-.452a.551.551,0,0,1,.673-.241l.812.3a1.659,1.659,0,0,0,1.412-.117l.963-.556a1.656,1.656,0,0,0,.807-1.164l.142-.856a.552.552,0,0,1,.545-.462h.523m0-.868h-.523a1.417,1.417,0,0,0-1.4,1.185l-.143.857a.79.79,0,0,1-.385.555l-.962.556a.791.791,0,0,1-.674.055l-.811-.3a1.419,1.419,0,0,0-1.728.617l-.263.455a1.413,1.413,0,0,0,.327,1.808l.669.551a.785.785,0,0,1,.288.61v1.113a.788.788,0,0,1-.288.611l-.67.552a1.414,1.414,0,0,0-.326,1.808l.261.451a1.417,1.417,0,0,0,1.732.619l.81-.3a.788.788,0,0,1,.672.055l.963.557a.789.789,0,0,1,.385.554l.142.856a1.417,1.417,0,0,0,1.4,1.187h.523a1.417,1.417,0,0,0,1.4-1.184l.143-.858a.79.79,0,0,1,.385-.555l.962-.556a.8.8,0,0,1,.4-.105.807.807,0,0,1,.281.051l.809.3a1.418,1.418,0,0,0,1.729-.619l.262-.453a1.413,1.413,0,0,0-.327-1.808l-.669-.551a.788.788,0,0,1-.288-.612v-1.112a.791.791,0,0,1,.289-.611l.669-.551a1.414,1.414,0,0,0,.326-1.808l-.261-.451a1.418,1.418,0,0,0-1.73-.62l-.812.3a.8.8,0,0,1-.279.05.787.787,0,0,1-.393-.106l-.963-.557a.789.789,0,0,1-.385-.554l-.142-.856a1.417,1.417,0,0,0-1.4-1.187Z" transform="translate(-672.857 -707.098)" fill="#fff"/>
    <path id="Path_50" data-name="Path 50" d="M682.485,721.031a3.126,3.126,0,1,1,3.126-3.126,3.126,3.126,0,0,1-3.126,3.126Zm0-5.383a2.258,2.258,0,1,0,2.258,2.258A2.258,2.258,0,0,0,682.485,715.648Z" transform="translate(-675.663 -710.413)" fill="#fff"/>
  </g>
</svg>
