<?xml version="1.0" encoding="UTF-8"?><svg id="Layer_1" xmlns="http://www.w3.org/2000/svg" viewBox="0 0 141.73 141.73"><defs><style>.cls-1{fill:#fff;stroke-width:0px;}</style></defs><path class="cls-1" d="m70.87,141.73C31.79,141.73,0,109.94,0,70.87S31.79,0,70.87,0s70.87,31.79,70.87,70.87-31.79,70.87-70.87,70.87Zm0-131.14c-33.24,0-60.28,27.04-60.28,60.28s27.04,60.28,60.28,60.28,60.28-27.04,60.28-60.28S104.1,10.59,70.87,10.59Z"/><path class="cls-1" d="m108.12,83.62h-39.95c-1.95,0-3.53-2.11-3.53-4.76h0c0-2.6,1.58-4.72,3.53-4.72h39.95c1.94,0,3.53,2.12,3.53,4.72h0c0,2.65-1.59,4.76-3.53,4.76Z"/><path class="cls-1" d="m74.13,31.03v48.21c0,2.4-2.3,4.38-5.13,4.38h0c-2.83,0-5.11-1.97-5.11-4.38V31.03c0-2.43,2.29-4.39,5.11-4.39h0c2.83,0,5.13,1.97,5.13,4.39Z"/></svg>