<svg xmlns="http://www.w3.org/2000/svg" width="18.905" height="15.499" viewBox="0 0 18.905 15.499">
  <g id="wifi_Connected" transform="translate(0 0)">
    <path id="Path_167" data-name="Path 167" d="M-32.2,731.721a1.5,1.5,0,0,0,0,2.121,1.5,1.5,0,0,0,2.121,0,1.5,1.5,0,0,0,0-2.121,1.5,1.5,0,0,0-2.121,0Z" transform="translate(40.597 -718.782)" fill="#fff"/>
    <path id="Path_168" data-name="Path 168" d="M-31.144,726.782a5.972,5.972,0,0,0-3.276.972,1.012,1.012,0,0,0-.468.738,1.012,1.012,0,0,0,.282.827h0a1.021,1.021,0,0,0,1.289.1,3.976,3.976,0,0,1,2.172-.643,3.976,3.976,0,0,1,2.172.643,1.021,1.021,0,0,0,1.289-.1l0,0a.988.988,0,0,0,.3-.78.988.988,0,0,0-.406-.729,5.972,5.972,0,0,0-3.357-1.026Z" transform="translate(40.597 -718.782)" fill="#fff"/>
    <path id="Path_169" data-name="Path 169" d="M-40.3,723.622h0a.991.991,0,0,0,1.344.061,11.948,11.948,0,0,1,7.816-2.9,11.949,11.949,0,0,1,7.816,2.9.991.991,0,0,0,1.344-.061h0a1.012,1.012,0,0,0,.291-.758,1.012,1.012,0,0,0-.359-.728,13.945,13.945,0,0,0-9.093-3.354,13.945,13.945,0,0,0-9.093,3.354,1.012,1.012,0,0,0-.359.728,1.012,1.012,0,0,0,.291.758Z" transform="translate(40.597 -718.782)" fill="#fff"/>
    <path id="Path_170" data-name="Path 170" d="M-37.462,726.463h0a.988.988,0,0,0,1.317.08,7.961,7.961,0,0,1,5-1.761,7.962,7.962,0,0,1,5,1.761.988.988,0,0,0,1.317-.079h0a1.008,1.008,0,0,0,.294-.767,1.008,1.008,0,0,0-.374-.731,9.958,9.958,0,0,0-6.238-2.183,9.957,9.957,0,0,0-6.238,2.183,1.008,1.008,0,0,0-.374.731,1.008,1.008,0,0,0,.293.767Z" transform="translate(40.597 -718.782)" fill="#fff"/>
  </g>
</svg>
