<?xml version="1.0" encoding="UTF-8"?>
<svg id="Layer_1" data-name="Layer 1" xmlns="http://www.w3.org/2000/svg" version="1.1" viewBox="0 0 18.9 15.5">
  <defs>
    <style>
      .cls-1 {
        fill: red;
      }

      .cls-1, .cls-2 {
        stroke-width: 0px;
      }

      .cls-2 {
        fill: #fff;
      }
    </style>
  </defs>
  <g id="wifi_Connected" data-name="wifi Connected">
    <path id="Path_167" data-name="Path 167" class="cls-2" d="M8.4,12.9c-.6.6-.6,1.5,0,2.1.6.6,1.5.6,2.1,0s.6-1.5,0-2.1-1.5-.6-2.1,0Z"/>
    <path id="Path_168" data-name="Path 168" class="cls-2" d="M9.5,8c-1.2,0-2.3.3-3.3,1-.3.2-.4.4-.5.7,0,.3,0,.6.3.8h0c.4.3.9.4,1.3,0,.6-.4,1.4-.6,2.2-.6s1.5.2,2.2.6c.4.3.9.2,1.3,0h0c.2-.2.3-.5.3-.8s-.2-.6-.4-.7c-1-.7-2.2-1-3.4-1h0Z"/>
    <path id="Path_169" data-name="Path 169" class="cls-2" d="M.3,4.9c.4.4.9.3,1.3-.1,2.2-1.9,4.9-2.9,7.8-2.9s5.6,1,7.8,2.9c.4.3,1,.3,1.3,0,.2-.2.3-.5.3-.8s-.1-.5-.4-.7C16,1.2,12.8,0,9.5,0S2.9,1.2.4,3.4c-.2.2-.3.4-.4.7,0,.3,0,.6.3.8h0Z"/>
    <path id="Path_170" data-name="Path 170" class="cls-2" d="M3.1,7.7h0c.4.4.9.4,1.3,0,1.4-1.1,3.2-1.8,5-1.8s3.6.6,5,1.8c.4.3,1,.3,1.3,0h0c.2-.2.3-.5.3-.8s-.2-.6-.4-.7c-1.8-1.4-4-2.2-6.2-2.2s-4.5.8-6.2,2.2c-.2.2-.4.4-.4.7s0,.6.3.8h0Z"/>
  </g>
  <g id="Layer_2" data-name="Layer 2">
    <path class="cls-1" d="M1.7,14.9c-.3,0-.6-.1-.8-.4-.4-.4-.3-1.1,0-1.4L16,.8c.4-.4,1.1-.3,1.4.1.4.4.3,1.1-.1,1.4L2.3,14.7c-.2.2-.4.2-.6.2Z"/>
  </g>
</svg>